{"accessors":[{"bufferView":2,"componentType":5126,"count":250,"max":[-45.882461547851562,15.674348831176758,91.540664672851562],"min":[-76.493537902832031,-11.028456687927246,65.852890014648438],"type":"VEC3"},{"bufferView":2,"byteOffset":3000,"componentType":5126,"count":250,"max":[0.99176514148712158,0.99788928031921387,0.99983882904052734],"min":[-0.96787083148956299,-0.99864184856414795,-0.99691498279571533],"type":"VEC3"},{"bufferView":3,"componentType":5126,"count":250,"max":[1,1,1,1],"min":[0.14901961386203766,0.14901961386203766,0.14901961386203766,1],"type":"VEC4"},{"bufferView":1,"componentType":5126,"count":250,"max":[0.980712890625,-0.01409912109375],"min":[0.08233642578125,-0.99749755859375],"type":"VEC2"},{"bufferView":3,"byteOffset":4000,"componentType":5126,"count":250,"max":[0.99914461374282837,0.96264356374740601,0.99596792459487915,1],"min":[-0.99928802251815796,-0.97752469778060913,-0.99950700998306274,-1],"type":"VEC4"},{"bufferView":0,"componentType":5125,"count":1014,"max":[249],"min":[0],"type":"SCALAR"},{"bufferView":2,"byteOffset":6000,"componentType":5126,"count":234,"max":[76.4962158203125,15.657777786254883,91.528205871582031],"min":[45.885589599609375,-11.047109603881836,65.840744018554688],"type":"VEC3"},{"bufferView":2,"byteOffset":8808,"componentType":5126,"count":234,"max":[0.96643728017807007,0.99787360429763794,0.99983298778533936],"min":[-0.98737925291061401,-0.99864929914474487,-0.99688756465911865],"type":"VEC3"},{"bufferView":3,"byteOffset":8000,"componentType":5126,"count":234,"max":[1,1,1,1],"min":[0.14901961386203766,0.14901961386203766,0.14901961386203766,1],"type":"VEC4"},{"bufferView":1,"byteOffset":2000,"componentType":5126,"count":234,"max":[0.980712890625,-0.01409912109375],"min":[0.08233642578125,-0.99749755859375],"type":"VEC2"},{"bufferView":3,"byteOffset":11744,"componentType":5126,"count":234,"max":[0.99928897619247437,0.96258378028869629,0.99599546194076538,1],"min":[-0.99914056062698364,-0.977588951587677,-0.9994962215423584,-1],"type":"VEC4"},{"bufferView":0,"byteOffset":4056,"componentType":5125,"count":1014,"max":[233],"min":[0],"type":"SCALAR"},{"bufferView":2,"byteOffset":11616,"componentType":5126,"count":684,"max":[21.988235473632812,10.651196479797363,127.38626861572266],"min":[-21.988307952880859,-38.897068023681641,83.232872009277344],"type":"VEC3"},{"bufferView":2,"byteOffset":19824,"componentType":5126,"count":684,"max":[0.99995172023773193,0.9996458888053894,0.99635851383209229],"min":[-0.99996036291122437,-0.99940139055252075,-0.99999690055847168],"type":"VEC3"},{"bufferView":3,"byteOffset":15488,"componentType":5126,"count":684,"max":[1,1,1,1],"min":[0.40000006556510925,0.40000006556510925,0.40000006556510925,1],"type":"VEC4"},{"bufferView":1,"byteOffset":3872,"componentType":5126,"count":684,"max":[0.9927978515625,-0.00201416015625],"min":[0.0050048828125,-0.99700927734375],"type":"VEC2"},{"bufferView":3,"byteOffset":26432,"componentType":5126,"count":684,"max":[0.99923807382583618,0.99999725818634033,0.99940121173858643,1],"min":[-0.99919050931930542,-0.99867373704910278,-0.99998843669891357,-1],"type":"VEC4"},{"bufferView":0,"byteOffset":8112,"componentType":5125,"count":3162,"max":[683],"min":[0],"type":"SCALAR"},{"bufferView":2,"byteOffset":28032,"componentType":5126,"count":21,"max":[-3.6896893978118896,-17.171321868896484,118.71708679199219],"min":[-12.700870513916016,-20.578704833984375,105.11201477050781],"type":"VEC3"},{"bufferView":2,"byteOffset":28284,"componentType":5126,"count":21,"max":[0.12794679403305054,-0.7008482813835144,0.16965824365615845],"min":[-0.70675784349441528,-0.99878448247909546,-0.31886178255081177],"type":"VEC3"},{"bufferView":3,"byteOffset":37376,"componentType":5126,"count":21,"max":[1,1,1,1],"min":[1,1,1,1],"type":"VEC4"},{"bufferView":1,"byteOffset":9344,"componentType":5126,"count":21,"max":[0.749267578125,-0.098876953125],"min":[0.201416015625,-0.91180419921875],"type":"VEC2"},{"bufferView":3,"byteOffset":37712,"componentType":5126,"count":21,"max":[-0.69549763202667236,0.71328628063201904,0.068720877170562744,-1],"min":[-0.99831521511077881,-0.12801091372966766,-0.086635611951351166,-1],"type":"VEC4"},{"bufferView":0,"byteOffset":20760,"componentType":5125,"count":84,"max":[20],"min":[0],"type":"SCALAR"},{"bufferView":2,"byteOffset":28536,"componentType":5126,"count":21,"max":[12.681931495666504,-17.175470352172852,118.72722625732422],"min":[3.669682502746582,-20.580606460571289,105.12137603759766],"type":"VEC3"},{"bufferView":2,"byteOffset":28788,"componentType":5126,"count":21,"max":[0.70664280652999878,-0.70107877254486084,0.17006777226924896],"min":[-0.12826548516750336,-0.99880051612854004,-0.318757563829422],"type":"VEC3"},{"bufferView":3,"byteOffset":38048,"componentType":5126,"count":21,"max":[1,1,1,1],"min":[1,1,1,1],"type":"VEC4"},{"bufferView":1,"byteOffset":9512,"componentType":5126,"count":21,"max":[0.749267578125,-0.098876953125],"min":[0.201416015625,-0.91180419921875],"type":"VEC2"},{"bufferView":3,"byteOffset":38384,"componentType":5126,"count":21,"max":[0.99829447269439697,0.71305936574935913,0.069893501698970795,1],"min":[0.69583219289779663,-0.12833505868911743,-0.085813708603382111,1],"type":"VEC4"},{"bufferView":0,"byteOffset":21096,"componentType":5125,"count":84,"max":[20],"min":[0],"type":"SCALAR"},{"bufferView":2,"byteOffset":29040,"componentType":5126,"count":68,"max":[15.271603584289551,-16.252975463867188,120.57175445556641],"min":[-15.28307056427002,-22.502719879150391,102.74537658691406],"type":"VEC3"},{"bufferView":2,"byteOffset":29856,"componentType":5126,"count":68,"max":[0.87618637084960938,-0.14148354530334473,0.74219739437103271],"min":[-0.876717209815979,-0.99875485897064209,-0.53621572256088257],"type":"VEC3"},{"bufferView":3,"byteOffset":38720,"componentType":5126,"count":68,"max":[0.85098052024841309,0.85098052024841309,0.85098052024841309,1],"min":[0.85098052024841309,0.85098052024841309,0.85098052024841309,1],"type":"VEC4"},{"bufferView":1,"byteOffset":9680,"componentType":5126,"count":68,"max":[0.87908935546875,-0.002197265625],"min":[0.11700439453125,-0.9952392578125],"type":"VEC2"},{"bufferView":3,"byteOffset":39808,"componentType":5126,"count":68,"max":[0.9982488751411438,0.91312146186828613,0.12167314440011978,1],"min":[-0.99826937913894653,0.049883574247360229,-0.25140073895454407,-1],"type":"VEC4"},{"bufferView":0,"byteOffset":21432,"componentType":5125,"count":318,"max":[67],"min":[0],"type":"SCALAR"},{"bufferView":2,"byteOffset":30672,"componentType":5126,"count":339,"max":[31.031246185302734,24.903160095214844,127.27497863769531],"min":[-31.039039611816406,-12.374798774719238,88.223464965820312],"type":"VEC3"},{"bufferView":2,"byteOffset":34740,"componentType":5126,"count":339,"max":[0.99937283992767334,0.99801850318908691,0.94511044025421143],"min":[-0.99933058023452759,-0.9636034369468689,-0.98686635494232178],"type":"VEC3"},{"bufferView":3,"byteOffset":40896,"componentType":5126,"count":339,"max":[1,1,1,1],"min":[0.14901961386203766,0.14901961386203766,0.14901961386203766,1],"type":"VEC4"},{"bufferView":1,"byteOffset":10224,"componentType":5126,"count":339,"max":[1,-0],"min":[0,-0.98272705078125],"type":"VEC2"},{"bufferView":3,"byteOffset":46320,"componentType":5126,"count":339,"max":[0.99999982118606567,0.99999117851257324,0.98223006725311279,1],"min":[-0.99732464551925659,-0.99633824825286865,-0.99801844358444214,-1],"type":"VEC4"},{"bufferView":0,"byteOffset":22704,"componentType":5125,"count":1449,"max":[338],"min":[0],"type":"SCALAR"},{"bufferView":2,"byteOffset":38808,"componentType":5126,"count":290,"max":[28.299892425537109,31.900445938110352,149.97833251953125],"min":[-28.325082778930664,-36.797740936279297,106.11009216308594],"type":"VEC3"},{"bufferView":2,"byteOffset":42288,"componentType":5126,"count":290,"max":[0.99876248836517334,0.98449218273162842,0.98520880937576294],"min":[-0.99885886907577515,-0.99997347593307495,-0.98412251472473145],"type":"VEC3"},{"bufferView":3,"byteOffset":51744,"componentType":5126,"count":290,"max":[1,1,1,1],"min":[0.3490196168422699,0.3490196168422699,0.3490196168422699,1],"type":"VEC4"},{"bufferView":1,"byteOffset":12936,"componentType":5126,"count":290,"max":[0.9849853515625,0.0069580078125],"min":[0.01220703125,-0.99053955078125],"type":"VEC2"},{"bufferView":3,"byteOffset":56384,"componentType":5126,"count":290,"max":[0.99999988079071045,0.83731627464294434,0.99156779050827026,1],"min":[-0.99999642372131348,-0.95598459243774414,-0.97189170122146606,-1],"type":"VEC4"},{"bufferView":0,"byteOffset":28500,"componentType":5125,"count":1254,"max":[289],"min":[0],"type":"SCALAR"},{"bufferView":2,"byteOffset":45768,"componentType":5126,"count":1356,"max":[47.811920166015625,18.38349723815918,97.548202514648438],"min":[-48.113056182861328,-23.347841262817383,-0.03782179206609726],"type":"VEC3"},{"bufferView":2,"byteOffset":62040,"componentType":5126,"count":1356,"max":[0.9999229907989502,0.99989408254623413,0.99996656179428101],"min":[-0.99992489814758301,-0.99987113475799561,-0.9999234676361084],"type":"VEC3"},{"bufferView":3,"byteOffset":61024,"componentType":5126,"count":1356,"max":[1,1,1,1],"min":[0,0,0,1],"type":"VEC4"},{"bufferView":1,"byteOffset":15256,"componentType":5126,"count":1356,"max":[1,-0.00189208984375],"min":[0,-0.993896484375],"type":"VEC2"},{"bufferView":3,"byteOffset":82720,"componentType":5126,"count":1356,"max":[1,0.99999934434890747,0.9991767406463623,1],"min":[-0.99999827146530151,-0.99994087219238281,-0.9946361780166626,-1],"type":"VEC4"},{"bufferView":0,"byteOffset":33516,"componentType":5125,"count":6252,"max":[1355],"min":[0],"type":"SCALAR"}],"asset":{"generator":"Sketchfab (OSG glTF plugin)","version":"2.0"},"bufferViews":[{"buffer":0,"byteLength":58524,"byteOffset":0,"name":"ScalarBufferView","target":34962},{"buffer":0,"byteLength":26104,"byteOffset":58524,"byteStride":8,"name":"Vec2BufferView","target":34962},{"buffer":0,"byteLength":78312,"byteOffset":84628,"byteStride":12,"name":"Vec3BufferView","target":34962},{"buffer":0,"byteLength":104416,"byteOffset":162940,"byteStride":16,"name":"Vec4BufferView","target":34962}],"buffers":[{"byteLength":267356,"uri":"scene.bin"}],"images":[{"uri":"textures\/EyeballR_v_baseColor.png"},{"uri":"textures\/Hair_v_baseColor.png"},{"uri":"textures\/Cap_v_baseColor.png"},{"uri":"textures\/Body1_v_baseColor.png"},{"uri":"textures\/EyeLid_v_baseColor.png"},{"uri":"textures\/EyeballL_v_baseColor.png"},{"uri":"textures\/Hand_v(2)_baseColor.png"},{"uri":"textures\/Face_v_baseColor.png"},{"uri":"textures\/Hand_v_baseColor.png"}],"materials":[{"doubleSided":true,"emissiveFactor":[0,0,0],"name":"Hand_v(2)","pbrMetallicRoughness":{"baseColorFactor":[1,1,1,1],"baseColorTexture":{"index":6,"texCoord":0},"metallicFactor":0,"roughnessFactor":0.59999999999999998}},{"doubleSided":true,"emissiveFactor":[0,0,0],"name":"Hand_v","pbrMetallicRoughness":{"baseColorFactor":[1,1,1,1],"baseColorTexture":{"index":8,"texCoord":0},"metallicFactor":0,"roughnessFactor":0.59999999999999998}},{"doubleSided":true,"emissiveFactor":[0,0,0],"name":"Face_v","pbrMetallicRoughness":{"baseColorFactor":[1,1,1,1],"baseColorTexture":{"index":7,"texCoord":0},"metallicFactor":0,"roughnessFactor":0.59999999999999998}},{"doubleSided":true,"emissiveFactor":[0,0,0],"name":"EyeballR_v","pbrMetallicRoughness":{"baseColorFactor":[1,1,1,1],"baseColorTexture":{"index":0,"texCoord":0},"metallicFactor":0,"roughnessFactor":0.59999999999999998}},{"doubleSided":true,"emissiveFactor":[0,0,0],"name":"EyeballL_v","pbrMetallicRoughness":{"baseColorFactor":[1,1,1,1],"baseColorTexture":{"index":5,"texCoord":0},"metallicFactor":0,"roughnessFactor":0.59999999999999998}},{"doubleSided":true,"emissiveFactor":[0,0,0],"name":"EyeLid_v","pbrMetallicRoughness":{"baseColorFactor":[1,1,1,1],"baseColorTexture":{"index":4,"texCoord":0},"metallicFactor":0,"roughnessFactor":0.59999999999999998}},{"doubleSided":true,"emissiveFactor":[0,0,0],"name":"Hair_v","pbrMetallicRoughness":{"baseColorFactor":[1,1,1,1],"baseColorTexture":{"index":1,"texCoord":0},"metallicFactor":0,"roughnessFactor":0.59999999999999998}},{"doubleSided":true,"emissiveFactor":[0,0,0],"name":"Cap_v","pbrMetallicRoughness":{"baseColorFactor":[1,1,1,1],"baseColorTexture":{"index":2,"texCoord":0},"metallicFactor":0,"roughnessFactor":0.59999999999999998}},{"doubleSided":true,"emissiveFactor":[0,0,0],"name":"Body1_v","pbrMetallicRoughness":{"baseColorFactor":[1,1,1,1],"baseColorTexture":{"index":3,"texCoord":0},"metallicFactor":0,"roughnessFactor":0.59999999999999998}}],"meshes":[{"name":"mario","primitives":[{"attributes":{"COLOR_0":2,"NORMAL":1,"POSITION":0,"TANGENT":4,"TEXCOORD_0":3},"indices":5,"material":0,"mode":4},{"attributes":{"COLOR_0":8,"NORMAL":7,"POSITION":6,"TANGENT":10,"TEXCOORD_0":9},"indices":11,"material":1,"mode":4},{"attributes":{"COLOR_0":14,"NORMAL":13,"POSITION":12,"TANGENT":16,"TEXCOORD_0":15},"indices":17,"material":2,"mode":4},{"attributes":{"COLOR_0":20,"NORMAL":19,"POSITION":18,"TANGENT":22,"TEXCOORD_0":21},"indices":23,"material":3,"mode":4},{"attributes":{"COLOR_0":26,"NORMAL":25,"POSITION":24,"TANGENT":28,"TEXCOORD_0":27},"indices":29,"material":4,"mode":4},{"attributes":{"COLOR_0":32,"NORMAL":31,"POSITION":30,"TANGENT":34,"TEXCOORD_0":33},"indices":35,"material":5,"mode":4},{"attributes":{"COLOR_0":38,"NORMAL":37,"POSITION":36,"TANGENT":40,"TEXCOORD_0":39},"indices":41,"material":6,"mode":4},{"attributes":{"COLOR_0":44,"NORMAL":43,"POSITION":42,"TANGENT":46,"TEXCOORD_0":45},"indices":47,"material":7,"mode":4},{"attributes":{"COLOR_0":50,"NORMAL":49,"POSITION":48,"TANGENT":52,"TEXCOORD_0":51},"indices":53,"material":8,"mode":4}]}],"nodes":[{"children":[1],"name":"RootNode (gltf orientation matrix)","rotation":[-0.70710678118654746,-0,-0,0.70710678118654757]},{"children":[2],"name":"RootNode (model correction matrix)"},{"children":[3],"matrix":[1,0,0,0,0,0,1,0,0,-1,0,0,0,0,0,1],"name":"mario galaxy.fbx"},{"children":[4],"name":""},{"children":[5,9],"name":"RootNode"},{"children":[6],"matrix":[1,0,0,0,0,0.999999999999999,4.3711388508782534e-08,0,0,-4.3711388508782534e-08,0.999999999999999,0,0,0,0,1],"name":"Point001"},{"children":[7],"name":""},{"children":[8],"matrix":[1,-2.1096414342552418e-20,0,0,1.2917828149046565e-36,6.1232339957367648e-17,-0.99999999999999989,0,2.1096414342552418e-20,1,6.123233995736766e-17,0,-1.3010426069826053e-18,0,-8.8817841970012523e-16,1],"name":""},{"mesh":0,"name":"mario"},{"matrix":[1,0,0,0,0,2.2204460492503131e-16,-1,0,0,1,2.2204460492503131e-16,0,0,0,0,1],"name":"mario"}],"samplers":[{"magFilter":9729,"minFilter":9987,"wrapS":10497,"wrapT":10497}],"scene":0,"scenes":[{"name":"OSG_Scene","nodes":[0]}],"textures":[{"sampler":0,"source":0},{"sampler":0,"source":1},{"sampler":0,"source":2},{"sampler":0,"source":3},{"sampler":0,"source":4},{"sampler":0,"source":5},{"sampler":0,"source":6},{"sampler":0,"source":7},{"sampler":0,"source":8}]}
