{"accessors":[{"bufferView":2,"componentType":5126,"count":953,"max":[0.94015324115753174,4.1159005165100098,0.67784649133682251],"min":[-0.94017302989959717,-2.3622086048126221,-1.2366935014724731],"type":"VEC3"},{"bufferView":2,"byteOffset":11436,"componentType":5126,"count":953,"max":[0.99927347898483276,0.99942183494567871,0.9999164342880249],"min":[-0.99927347898483276,-0.99201762676239014,-0.99999982118606567],"type":"VEC3"},{"bufferView":3,"componentType":5126,"count":953,"max":[1,1,1,1],"min":[0.9960780143737793,0.9960780143737793,0.9960780143737793,1],"type":"VEC4"},{"bufferView":1,"componentType":5126,"count":953,"max":[2.094127893447876,1.184054970741272],"min":[-1.1750479936599731,-0.56594502925872803],"type":"VEC2"},{"bufferView":3,"byteOffset":15248,"componentType":5126,"count":953,"max":[0.98926126956939697,1,0.99942177534103394,1],"min":[-0.9892609715461731,-0.99999856948852539,-0.9478803277015686,-1],"type":"VEC4"},{"bufferView":0,"componentType":5125,"count":5208,"max":[952],"min":[0],"type":"SCALAR"},{"bufferView":2,"byteOffset":22872,"componentType":5126,"count":180,"max":[0.32469063997268677,-1.3937220573425293,-0.1153053492307663],"min":[-0.32468739151954651,-1.9001197814941406,-0.7351837158203125],"type":"VEC3"},{"bufferView":2,"byteOffset":25032,"componentType":5126,"count":180,"max":[0.98689347505569458,0.74067240953445435,0.77258449792861938],"min":[-0.98689424991607666,-0.99867391586303711,-0.98059040307998657],"type":"VEC3"},{"bufferView":3,"byteOffset":30496,"componentType":5126,"count":180,"max":[1,1,1,1],"min":[0.9960780143737793,0.9960780143737793,0.9960780143737793,1],"type":"VEC4"},{"bufferView":1,"byteOffset":7624,"componentType":5126,"count":180,"max":[1,1],"min":[0,0],"type":"VEC2"},{"bufferView":3,"byteOffset":33376,"componentType":5126,"count":180,"max":[0.61669445037841797,0.70552718639373779,-0.16417209804058075,1],"min":[-0.61669135093688965,-0.97066324949264526,-0.99859577417373657,-1],"type":"VEC4"},{"bufferView":0,"byteOffset":20832,"componentType":5125,"count":540,"max":[179],"min":[0],"type":"SCALAR"},{"bufferView":2,"byteOffset":27192,"componentType":5126,"count":200,"max":[4.288175106048584,0.087047383189201355,0.5915597677230835],"min":[-4.288170337677002,-5.1234903335571289,-1.973801851272583],"type":"VEC3"},{"bufferView":2,"byteOffset":29592,"componentType":5126,"count":200,"max":[0.99120664596557617,0.93045645952224731,0.98133128881454468],"min":[-0.76485699415206909,-0.93045586347579956,-0.98133134841918945],"type":"VEC3"},{"bufferView":3,"byteOffset":36256,"componentType":5126,"count":200,"max":[1,1,1,1],"min":[1,1,1,1],"type":"VEC4"},{"bufferView":1,"byteOffset":9064,"componentType":5126,"count":200,"max":[31.868923187255859,0.96020501852035522],"min":[-30.82142448425293,0.0024339999072253704],"type":"VEC2"},{"bufferView":3,"byteOffset":39456,"componentType":5126,"count":200,"max":[0.90224927663803101,0.90464431047439575,0.8789905309677124,1],"min":[-0.90225070714950562,-0.91301846504211426,-0.69208961725234985,-1],"type":"VEC4"},{"bufferView":0,"byteOffset":22992,"componentType":5125,"count":480,"max":[199],"min":[0],"type":"SCALAR"},{"bufferView":2,"byteOffset":31992,"componentType":5126,"count":200,"max":[4.599909782409668,4.8080415725708008,0.4624706506729126],"min":[-4.5999240875244141,0.060657840222120285,-1.9737855195999146],"type":"VEC3"},{"bufferView":2,"byteOffset":34392,"componentType":5126,"count":200,"max":[0.99864071607589722,0.98006129264831543,0.96567404270172119],"min":[-0.66129451990127563,-0.980060875415802,-0.96567392349243164],"type":"VEC3"},{"bufferView":3,"byteOffset":42656,"componentType":5126,"count":200,"max":[1,1,1,1],"min":[1,1,1,1],"type":"VEC4"},{"bufferView":1,"byteOffset":10664,"componentType":5126,"count":200,"max":[19.866659164428711,0.98522698879241943],"min":[-20.412769317626953,0.0024000001139938831],"type":"VEC2"},{"bufferView":3,"byteOffset":45856,"componentType":5126,"count":200,"max":[0.97916537523269653,0.93236106634140015,0.80606371164321899,1],"min":[-0.97916430234909058,-0.52359700202941895,-0.80775153636932373,-1],"type":"VEC4"},{"bufferView":0,"byteOffset":24912,"componentType":5125,"count":480,"max":[199],"min":[0],"type":"SCALAR"},{"bufferView":2,"byteOffset":36792,"componentType":5126,"count":252,"max":[0.42387053370475769,-1.0600235462188721,0.22733159363269806],"min":[-0.4238695502281189,-1.2423850297927856,0.14725001156330109],"type":"VEC3"},{"bufferView":2,"byteOffset":39816,"componentType":5126,"count":252,"max":[0.89979737997055054,0.13127250969409943,0.99788570404052734],"min":[-0.89979541301727295,-0.98525524139404297,-0.7528388500213623],"type":"VEC3"},{"bufferView":3,"byteOffset":49056,"componentType":5126,"count":252,"max":[1,1,1,1],"min":[1,1,1,1],"type":"VEC4"},{"bufferView":1,"byteOffset":12264,"componentType":5126,"count":252,"max":[1,1],"min":[0,0],"type":"VEC2"},{"bufferView":3,"byteOffset":53088,"componentType":5126,"count":252,"max":[1,1,1,1],"min":[-1,-0.99273103475570679,-1,-1],"type":"VEC4"},{"bufferView":0,"byteOffset":26832,"componentType":5125,"count":768,"max":[251],"min":[0],"type":"SCALAR"},{"bufferView":2,"byteOffset":42840,"componentType":5126,"count":70,"max":[2.3606166839599609,-0.19006974995136261,0.31539562344551086],"min":[-2.3606047630310059,-5.1234903335571289,-1.9543032646179199],"type":"VEC3"},{"bufferView":2,"byteOffset":43680,"componentType":5126,"count":70,"max":[0.99142014980316162,0.59290260076522827,0.93000078201293945],"min":[-0.99141955375671387,-0.89075666666030884,-0.99677366018295288],"type":"VEC3"},{"bufferView":3,"byteOffset":57120,"componentType":5126,"count":70,"max":[1,1,1,1],"min":[1,1,1,1],"type":"VEC4"},{"bufferView":1,"byteOffset":14280,"componentType":5126,"count":70,"max":[1.1544719934463501,2.4814999103546143],"min":[-0.17577600479125977,-1.3753780126571655],"type":"VEC2"},{"bufferView":3,"byteOffset":58240,"componentType":5126,"count":70,"max":[0.99784964323043823,0.78503918647766113,0.99435722827911377,1],"min":[-0.99784934520721436,-0.89571714401245117,-0.97925585508346558,-1],"type":"VEC4"},{"bufferView":0,"byteOffset":29904,"componentType":5125,"count":300,"max":[69],"min":[0],"type":"SCALAR"},{"bufferView":2,"byteOffset":44520,"componentType":5126,"count":198,"max":[4.599909782409668,4.8080415725708008,0.32516467571258545],"min":[-4.5999240875244141,-2.2455041408538818,-1.973801851272583],"type":"VEC3"},{"bufferView":2,"byteOffset":46896,"componentType":5126,"count":198,"max":[0.99311697483062744,0.97011840343475342,0.95959597826004028],"min":[-0.99311667680740356,-0.95049619674682617,-0.99773150682449341],"type":"VEC3"},{"bufferView":3,"byteOffset":59360,"componentType":5126,"count":198,"max":[1,1,1,1],"min":[1,1,1,1],"type":"VEC4"},{"bufferView":1,"byteOffset":14840,"componentType":5126,"count":198,"max":[1.182237982749939,2.3551828861236572],"min":[-0.21625800430774689,-1.3753780126571655],"type":"VEC2"},{"bufferView":3,"byteOffset":62528,"componentType":5126,"count":198,"max":[0.9894755482673645,0.98707181215286255,0.99705636501312256,1],"min":[-0.98947596549987793,-0.99822568893432617,-0.97932088375091553,-1],"type":"VEC4"},{"bufferView":0,"byteOffset":31104,"componentType":5125,"count":900,"max":[197],"min":[0],"type":"SCALAR"},{"bufferView":2,"byteOffset":49272,"componentType":5126,"count":4,"max":[14.856616020202637,14.856616020202637,0],"min":[-14.856616020202637,-14.856616020202637,0],"type":"VEC3"},{"bufferView":2,"byteOffset":49320,"componentType":5126,"count":4,"max":[0,0,1],"min":[0,0,1],"type":"VEC3"},{"bufferView":0,"byteOffset":34704,"componentType":5125,"count":6,"max":[3],"min":[0],"type":"SCALAR"}],"asset":{"generator":"Sketchfab (OSG glTF plugin)","version":"2.0"},"bufferViews":[{"buffer":0,"byteLength":34728,"byteOffset":0,"name":"ScalarBufferView","target":34962},{"buffer":0,"byteLength":16424,"byteOffset":34728,"byteStride":8,"name":"Vec2BufferView","target":34962},{"buffer":0,"byteLength":49368,"byteOffset":51152,"byteStride":12,"name":"Vec3BufferView","target":34962},{"buffer":0,"byteLength":65696,"byteOffset":100520,"byteStride":16,"name":"Vec4BufferView","target":34962}],"buffers":[{"byteLength":166216,"uri":"scene.bin"}],"extensionsRequired":["KHR_materials_pbrSpecularGlossiness"],"extensionsUsed":["KHR_materials_pbrSpecularGlossiness"],"images":[{"uri":"textures\/Material_008_0_diffuse.jpg"},{"uri":"textures\/Material_008_0_specularGlossiness.png"},{"uri":"textures\/Material_008_0_normal.jpg"},{"uri":"textures\/Material_006_normal.jpg"},{"uri":"textures\/Material_009_diffuse.png"},{"uri":"textures\/Material_009_specularGlossiness.png"},{"uri":"textures\/Material_009__SH3_png_diffuse.png"},{"uri":"textures\/Material_009__SH3_png_specularGlossiness.png"},{"uri":"textures\/Material_008_diffuse.jpg"},{"uri":"textures\/Material_008_specularGlossiness.png"},{"uri":"textures\/Material_008_occlusion.jpg"},{"uri":"textures\/Material_008_normal.jpg"},{"uri":"textures\/Material_008__Spinnen_Bein_tex_jpg_diffuse.jpg"},{"uri":"textures\/Material_008__Spinnen_Bein_tex_jpg_specularGlossiness.png"},{"uri":"textures\/Material_008__Spinnen_Bein_tex_jpg_normal.jpg"},{"uri":"textures\/Material_007_normal.jpg"}],"materials":[{"doubleSided":true,"emissiveFactor":[0,0,0],"extensions":{"KHR_materials_pbrSpecularGlossiness":{"diffuseFactor":[1,1,1,1],"diffuseTexture":{"index":8,"texCoord":0},"glossinessFactor":0.030000000000000027,"specularFactor":[1,1,1],"specularGlossinessTexture":{"index":9,"texCoord":0}}},"name":"Material_008","normalTexture":{"index":11,"scale":1,"texCoord":0},"occlusionTexture":{"index":10,"strength":0.81999999999999995,"texCoord":0}},{"doubleSided":true,"emissiveFactor":[0,0,0],"extensions":{"KHR_materials_pbrSpecularGlossiness":{"diffuseFactor":[0.23999999999999999,0.23999999999999999,0.23999999999999999,1],"glossinessFactor":0.98999999999999999,"specularFactor":[0.20000000000000001,0.20000000000000001,0.20000000000000001]}},"name":"Material_006","normalTexture":{"index":3,"scale":1,"texCoord":0}},{"doubleSided":true,"emissiveFactor":[0,0,0],"extensions":{"KHR_materials_pbrSpecularGlossiness":{"diffuseFactor":[1,1,1,1],"diffuseTexture":{"index":6,"texCoord":0},"glossinessFactor":1,"specularFactor":[0,0,0],"specularGlossinessTexture":{"index":7,"texCoord":0}}},"name":"Material_009__SH3_png"},{"doubleSided":true,"emissiveFactor":[0,0,0],"extensions":{"KHR_materials_pbrSpecularGlossiness":{"diffuseFactor":[1,1,1,1],"diffuseTexture":{"index":4,"texCoord":0},"glossinessFactor":1,"specularFactor":[0,0,0],"specularGlossinessTexture":{"index":5,"texCoord":0}}},"name":"Material_009"},{"doubleSided":true,"emissiveFactor":[0,0,0],"extensions":{"KHR_materials_pbrSpecularGlossiness":{"diffuseFactor":[0,0,0,1],"glossinessFactor":0.81999999999999995,"specularFactor":[0.12,0.12,0.12]}},"name":"Material_007","normalTexture":{"index":15,"scale":1,"texCoord":0}},{"doubleSided":true,"emissiveFactor":[0,0,0],"extensions":{"KHR_materials_pbrSpecularGlossiness":{"diffuseFactor":[1,1,1,1],"diffuseTexture":{"index":12,"texCoord":0},"glossinessFactor":0,"specularFactor":[1,1,1],"specularGlossinessTexture":{"index":13,"texCoord":0}}},"name":"Material_008__Spinnen_Bein_tex_jpg","normalTexture":{"index":14,"scale":1,"texCoord":0}},{"doubleSided":true,"emissiveFactor":[0,0,0],"extensions":{"KHR_materials_pbrSpecularGlossiness":{"diffuseFactor":[1,1,1,1],"diffuseTexture":{"index":0,"texCoord":0},"glossinessFactor":0,"specularFactor":[1,1,1],"specularGlossinessTexture":{"index":1,"texCoord":0}}},"name":"Material_008_0","normalTexture":{"index":2,"scale":1,"texCoord":0}},{"doubleSided":false,"emissiveFactor":[0,0,0],"extensions":{"KHR_materials_pbrSpecularGlossiness":{"diffuseFactor":[0.12,0.12,0.12,1],"glossinessFactor":0.43999999999999995,"specularFactor":[0,0,0]}},"name":"unnamed"}],"meshes":[{"name":"Cube_004","primitives":[{"attributes":{"COLOR_0":2,"NORMAL":1,"POSITION":0,"TANGENT":4,"TEXCOORD_0":3},"indices":5,"material":0,"mode":4}]},{"name":"Cube_003","primitives":[{"attributes":{"COLOR_0":8,"NORMAL":7,"POSITION":6,"TANGENT":10,"TEXCOORD_0":9},"indices":11,"material":1,"mode":4}]},{"name":"Cube_001","primitives":[{"attributes":{"COLOR_0":14,"NORMAL":13,"POSITION":12,"TANGENT":16,"TEXCOORD_0":15},"indices":17,"material":2,"mode":4},{"attributes":{"COLOR_0":20,"NORMAL":19,"POSITION":18,"TANGENT":22,"TEXCOORD_0":21},"indices":23,"material":3,"mode":4}]},{"name":"Cube_002","primitives":[{"attributes":{"COLOR_0":26,"NORMAL":25,"POSITION":24,"TANGENT":28,"TEXCOORD_0":27},"indices":29,"material":4,"mode":4}]},{"name":"Cube","primitives":[{"attributes":{"COLOR_0":32,"NORMAL":31,"POSITION":30,"TANGENT":34,"TEXCOORD_0":33},"indices":35,"material":5,"mode":4},{"attributes":{"COLOR_0":38,"NORMAL":37,"POSITION":36,"TANGENT":40,"TEXCOORD_0":39},"indices":41,"material":6,"mode":4}]},{"name":"Plane","primitives":[{"attributes":{"NORMAL":43,"POSITION":42},"indices":44,"material":7,"mode":4}]}],"nodes":[{"children":[1],"name":"RootNode (gltf orientation matrix)","rotation":[-0.70710678118654746,-0,-0,0.70710678118654757]},{"children":[2],"name":"RootNode (model correction matrix)"},{"children":[3],"matrix":[1,0,0,0,0,0,1,0,0,-1,0,0,0,0,0,1],"name":"a406d8caba1f4fe693ee8c90af1ef2f1.fbx"},{"children":[4],"name":""},{"children":[5],"name":"RootNode"},{"children":[6,8,10,12,14,16,17,18,19,20,21,23],"name":""},{"children":[7],"matrix":[1.0000000537860181,-4.5545161808657746e-08,-1.8320278794003997e-08,0,-1.8320278356415381e-08,-7.1551578788002047e-09,-1.0000000121124459,0,4.554516006975534e-08,1.000000018484398,-7.1551587587925274e-09,0,-1.9575808907906778e-09,2.050272024916203,-0.012111485417815863,1],"name":""},{"mesh":0,"name":"Cube_004"},{"children":[9],"matrix":[1.0000000537860181,-4.5545161808657746e-08,-1.8320278794003997e-08,0,-1.8320278356415381e-08,-7.1551578788002047e-09,-1.0000000121124459,0,4.554516006975534e-08,1.000000018484398,-7.1551587587925274e-09,0,-1.9575808907906778e-09,2.050272024916203,-0.012111485417815863,1],"name":""},{"mesh":1,"name":"Cube_003"},{"children":[11],"matrix":[1.0000000537860181,-4.5545161808657746e-08,-1.8320278794003997e-08,0,-1.8320278356415381e-08,-7.1551578788002047e-09,-1.0000000121124459,0,4.554516006975534e-08,1.000000018484398,-7.1551587587925274e-09,0,-1.9575808907906778e-09,2.050272024916203,-0.012111485417815863,1],"name":""},{"mesh":2,"name":"Cube_001"},{"children":[13],"matrix":[1.0000000537860181,-4.5545161808657746e-08,-1.8320278794003997e-08,0,-1.8320278356415381e-08,-7.1551578788002047e-09,-1.0000000121124459,0,4.554516006975534e-08,1.000000018484398,-7.1551587587925274e-09,0,-1.9575808907906778e-09,2.050272024916203,-0.012111485417815863,1],"name":""},{"mesh":3,"name":"Cube_002"},{"children":[15],"matrix":[1.0000000537860181,-4.5545161808657746e-08,-1.8320278794003997e-08,0,-1.8320278356415381e-08,-7.1551578788002047e-09,-1.0000000121124459,0,4.554516006975534e-08,1.000000018484398,-7.1551587587925274e-09,0,-1.9575808907906778e-09,2.050272024916203,-0.012111485417815863,1],"name":""},{"mesh":4,"name":"Cube"},{"name":"Cube_004"},{"name":"Cube_003"},{"name":"Cube_001"},{"name":"Cube_002"},{"name":"Cube"},{"children":[22],"matrix":[1,0,0,0,0,-1.6291842253046696e-07,-0.99999999999998679,0,0,0.99999999999998679,-1.6291842253046696e-07,0,0,0,0,1],"name":"Plane"},{"mesh":5,"name":"Plane"},{"children":[24],"matrix":[0.76786876987300667,-0.61437079065135236,0.18145414575326294,0,0.52758926319921728,0.76716201266233786,0.36484486739738153,0,-0.36335482228292215,-0.18441975343732253,0.91321534702282925,0,7.1498146057128906,6.7048873901367188,0.2401580810546875,1],"name":"Hemi"},{"children":[25],"matrix":[1,0,0,0,0,2.2204460492503131e-16,1,0,0,-1,2.2204460492503131e-16,0,0,0,0,1],"name":""},{"name":""}],"samplers":[{"magFilter":9729,"minFilter":9987,"wrapS":10497,"wrapT":10497}],"scene":0,"scenes":[{"name":"OSG_Scene","nodes":[0]}],"textures":[{"sampler":0,"source":0},{"sampler":0,"source":1},{"sampler":0,"source":2},{"sampler":0,"source":3},{"sampler":0,"source":4},{"sampler":0,"source":5},{"sampler":0,"source":6},{"sampler":0,"source":7},{"sampler":0,"source":8},{"sampler":0,"source":9},{"sampler":0,"source":10},{"sampler":0,"source":11},{"sampler":0,"source":12},{"sampler":0,"source":13},{"sampler":0,"source":14},{"sampler":0,"source":15}]}
