<svg xmlns="http://www.w3.org/2000/svg" viewBox="0 0 483.05 158.94"><title>Ativo 3</title><g id="Camada_2" data-name="Camada 2"><g id="Layer_1" data-name="Layer 1"><path d="M483,69.79l-.09,0h-.09c0-3.41-.06-6.83,0-10.24a.3.3,0,0,1,.17,0Z"/><path d="M482.88,119.15a.3.3,0,0,1,.17,0v7.5h-.18C482.83,124.17,482.81,121.66,482.88,119.15Z"/><path d="M83,0a1.11,1.11,0,0,0,0,.19h-7.1A1.24,1.24,0,0,0,76,0Z"/><path d="M75.94.19H83A77.76,77.76,0,0,1,115.95,9Q144.63,24.23,155,55.07A74.55,74.55,0,0,1,158.28,70a79.23,79.23,0,0,1-25,68,78.29,78.29,0,0,1-36.77,19.15,76,76,0,0,1-12.15,1.68C64.85,159.88,47.2,154.7,31.64,143S6.21,115.68,1.86,96.66A76.71,76.71,0,0,1,.27,86C.1,83.93,0,81.88,0,79.84A74.93,74.93,0,0,1,.57,70,80.28,80.28,0,0,1,4.81,52.31,79.61,79.61,0,0,1,56.51,3.5,76.23,76.23,0,0,1,71.07.58Q73.5.34,75.94.19Zm3.44,148.29a68.91,68.91,0,1,0-68.84-69.2A69,69,0,0,0,79.38,148.49Z"/><path d="M370.13,52.75c0-5.35,0-10.69,0-16a11.65,11.65,0,0,1,2.63-7.62,10.4,10.4,0,0,1,7.12-3.68,10,10,0,0,1,1.14-.06c4.58,0,9.16,0,13.75,0a10.51,10.51,0,0,1,7.93,3.31,11.2,11.2,0,0,1,2.85,6.13,18.47,18.47,0,0,1,.18,2.9q0,15.41,0,30.82a12.93,12.93,0,0,1-.92,5,10.06,10.06,0,0,1-9.48,6.65c-4.92.19-9.86.13-14.78,0a10.55,10.55,0,0,1-10.2-9,17.2,17.2,0,0,1-.22-2.8Q370.14,60.56,370.13,52.75Zm25.47.07q0-7.7,0-15.4a2.71,2.71,0,0,0-2.49-3,9.23,9.23,0,0,0-1.86-.2c-2.22,0-4.44,0-6.66,0a7.72,7.72,0,0,0-1.14.08c-2.58.39-3.26,1.19-3.26,3.78q0,14.78,0,29.56a11,11,0,0,0,.05,1.14A2.52,2.52,0,0,0,382,71a4.11,4.11,0,0,0,1.31.3c3.05.09,6.11.17,9.15,0,2.35-.15,3.15-1.39,3.12-3.32C395.55,62.88,395.6,57.85,395.6,52.82Z"/><path d="M211.56,52.71c0-5.52,0-11,0-16.56a11.16,11.16,0,0,1,1.6-5.64,10.28,10.28,0,0,1,8.14-5.09,11.6,11.6,0,0,1,1.35-.06H236a10.65,10.65,0,0,1,8,3.19,11.16,11.16,0,0,1,3,6.71,25.89,25.89,0,0,1,.14,3q0,14.89,0,29.78a15.31,15.31,0,0,1-.56,4.42,10.48,10.48,0,0,1-10.19,7.73c-4.72.05-9.44,0-14.16,0a9.8,9.8,0,0,1-2.36-.33c-4.47-1.11-7-4-8.05-8.46a15.38,15.38,0,0,1-.27-3.42q0-7.65,0-15.31Zm10,.06q0,7.7,0,15.41a2.68,2.68,0,0,0,2.26,2.92,6.76,6.76,0,0,0,1.85.21q3.59,0,7.18,0a6.08,6.08,0,0,0,2.35-.36A2.57,2.57,0,0,0,237,68.49c0-.35,0-.69,0-1q0-12.6,0-25.19c0-1.67,0-3.33,0-5a2.61,2.61,0,0,0-2.16-2.79,8,8,0,0,0-2.16-.28q-3.38,0-6.77,0a8.82,8.82,0,0,0-1.65.17,2.89,2.89,0,0,0-2.69,3.22C221.63,42.64,221.6,47.71,221.6,52.77Z"/><path d="M325.78,48c0,6.87,0,13.75,0,20.62A12,12,0,0,1,324.68,74a10.51,10.51,0,0,1-7.7,5.78,12.57,12.57,0,0,1-2.69.25H301.89a11.71,11.71,0,0,1-7.46-2.47A10.4,10.4,0,0,1,290.54,70c-.06-.65-.05-1.32-.05-2q0-20.67,0-41.35c0-.1,0-.21,0-.31,0-1,0-1,1-1h8c1,0,1,0,1,1q0,9.53,0,19.06,0,10.1,0,20.2a10,10,0,0,0,.51,3.48,3,3,0,0,0,3.25,2.37c2.78.12,5.55.07,8.33,0a3.14,3.14,0,0,0,3.15-2.24,10.35,10.35,0,0,0,.6-3.68q0-19.37,0-38.74c0-1.64-.21-1.43,1.43-1.44,2.33,0,4.65,0,7,0,1,0,1,0,1,1Q325.79,37.21,325.78,48Z"/><path d="M411.62,52.74q0-13.07,0-26.14c0-1.31-.15-1.25,1.22-1.25H441.9c.21,0,.42,0,.62,0,.39,0,.57.14.58.54,0,.55.09,1.11.11,1.66.08,1.84.16,3.67.23,5.51,0,.9,0,.91-.9.91H422.87c-1.42,0-1.27-.15-1.28,1.28q0,6.2,0,12.39c0,.24,0,.49,0,.73s.18.5.52.5h16.77c.4,0,.55.18.55.57q0,3.33,0,6.67c0,.4-.18.56-.57.54s-.49,0-.73,0H422.72c-1.21,0-1.13-.1-1.13,1.12q0,6.3,0,12.6c0,.21,0,.42,0,.62s.17.5.51.5h20.2c1.31,0,1.19-.06,1.14,1.19q-.13,3.33-.32,6.65c0,.83-.09.84-.91.84H412.53c-.91,0-.91,0-.91-1Q411.62,66,411.62,52.74Z"/><path d="M192.79,25.36h11.77c.42,0,.53.2.5.59-.07.9-.11,1.8-.16,2.7-.09,1.49-.16,3-.26,4.47-.07,1.07-.09,1.07-1.14,1.07h-17.6a8,8,0,0,0-2.56.37,2.56,2.56,0,0,0-1.92,2.56q-.05,3.7,0,7.39a3.45,3.45,0,0,0,1.52,2.72,7.9,7.9,0,0,0,4.25,1.51c2.11.2,4.24,0,6.34.21a12.25,12.25,0,0,1,10.14,6.18,10.6,10.6,0,0,1,1.42,5.27q.06,4.22,0,8.43a12.6,12.6,0,0,1-.87,4.58c-1.72,4.22-4.94,6.37-9.41,6.78-.34,0-.69,0-1,0H172.51c-1.29,0-1.18.09-1.11-1.2.12-2.32.28-4.64.39-7,0-.52.18-.78.73-.74.24,0,.49,0,.73,0h17.18a7.85,7.85,0,0,0,2.47-.26,2.56,2.56,0,0,0,2-2.76c0-2.39,0-4.79,0-7.18a3.54,3.54,0,0,0-1.51-3,7.27,7.27,0,0,0-3.74-1.44,55,55,0,0,0-5.82-.19,13.13,13.13,0,0,1-6.2-1.52c-4.09-2.23-6.32-5.61-6.33-10.34q0-4,0-8a11.89,11.89,0,0,1,1.28-5.42,10.26,10.26,0,0,1,8.59-5.75,14.72,14.72,0,0,1,1.56,0Z"/><path d="M482.88,59.57c-.07,3.41-.06,6.83,0,10.24-.31,4.38-2.3,7.64-6.36,9.49a10,10,0,0,1-4.14.91q-11.14,0-22.28,0c-.79,0-.81,0-.77-.82.13-2.49.29-5,.42-7.48,0-.46.24-.61.65-.6H468.3a8,8,0,0,0,2.58-.27,2.54,2.54,0,0,0,2-2.68c0-2.5,0-5,0-7.5a3.15,3.15,0,0,0-1-2.32,6.9,6.9,0,0,0-4.18-1.89,46.1,46.1,0,0,0-5.61-.2,13.23,13.23,0,0,1-8.68-3A10.82,10.82,0,0,1,449.29,45c0-2.78,0-5.55,0-8.33a11.85,11.85,0,0,1,1.93-6.6,10.29,10.29,0,0,1,7.89-4.62,14.44,14.44,0,0,1,1.56-.05H481.6c.21,0,.42,0,.62,0,.5,0,.67.17.65.67,0,1,0,2-.07,3-.06,1.42-.15,2.84-.26,4.26-.07.88-.1.89-1,.89h-17.7a7.94,7.94,0,0,0-2.46.34,2.58,2.58,0,0,0-2,2.58q-.07,3.75,0,7.5a3.41,3.41,0,0,0,1.5,2.63,7.91,7.91,0,0,0,4.25,1.52c2,.2,4.1.06,6.14.2A12.26,12.26,0,0,1,481.53,55,9,9,0,0,1,482.88,59.57Z"/><path d="M332.64,52.71c0-5.35,0-10.69,0-16a11.5,11.5,0,0,1,2.86-7.84,10.38,10.38,0,0,1,6.93-3.42,15,15,0,0,1,1.56-.06h19.26c.8,0,.81,0,.76.84q-.2,3.38-.4,6.75c0,.24,0,.48-.06.73a.49.49,0,0,1-.61.52c-.24,0-.49,0-.73,0h-15a7.78,7.78,0,0,0-2.56.37,2.48,2.48,0,0,0-1.9,2.54c0,.24,0,.49,0,.73q0,14.94,0,29.89c0,.07,0,.14,0,.21-.18,2.26,1.12,3.06,3,3.33a12.16,12.16,0,0,0,1.66.07h14.79c.24,0,.49,0,.73,0a.5.5,0,0,1,.61.53c0,.17,0,.34.06.52.14,2.39.27,4.78.42,7.17,0,.47-.06.75-.61.69a3.72,3.72,0,0,0-.42,0c-6.42,0-12.84,0-19.26,0a10.71,10.71,0,0,1-8.05-3.28,11.14,11.14,0,0,1-2.87-6,16.37,16.37,0,0,1-.19-2.8Q332.65,60.41,332.64,52.71Z"/><path d="M252.82,52.79q0-13,0-25.93c0-.28,0-.56,0-.83,0-.48.14-.68.65-.68q4.32,0,8.64,0c.48,0,.72.15.68.66,0,.28,0,.56,0,.83q0,21.66,0,43.32c0,1.54-.16,1.37,1.41,1.37h19.26c1.27,0,1.25,0,1.18,1.26-.12,2.15-.22,4.29-.32,6.44,0,1,0,1-1,1H254c-1.27,0-1.16.11-1.16-1.19Q252.82,65.91,252.82,52.79Z"/><path d="M371.6,109.8v1q0,10.88,0,21.77c0,1.23.07,1.13-1.12,1.14h-5c-.78,0-.79,0-.81-.82,0-.14,0-.28,0-.42q0-17.91,0-35.83c0-1.39-.11-1.23,1.22-1.24,1.6,0,3.2,0,4.79,0a1.25,1.25,0,0,1,1.34.85q4.92,9.94,9.89,19.85a22,22,0,0,0,1.79,3.11v-1.06q0-10.68,0-21.35c0-.28,0-.56,0-.83s.17-.55.56-.55h5.94c.34,0,.51.15.5.5s0,.49,0,.73q0,17.91,0,35.83c0,1.37.11,1.24-1.22,1.25-1.6,0-3.2,0-4.79,0a1.32,1.32,0,0,1-1.41-.9q-5.25-10.64-10.55-21.26l-.92-1.84Z"/><path d="M324.28,118.88l7,14.6c-.1.3-.3.24-.46.24-2,0-4,0-5.94,0a1.11,1.11,0,0,1-1.2-.86c-1.68-4.11-3.36-8.22-5.1-12.31-.82-1.93-.3-1.54-2.37-1.58-1.08,0-2.15,0-3.23,0-.73,0-.76,0-.76.78,0,2.33,0,4.65,0,7,0,2,0,4.1,0,6.15,0,.8,0,.81-.8.82q-2.66,0-5.31,0c-.77,0-.77,0-.79-.84,0-.17,0-.35,0-.52q0-17.81,0-35.62c0-.17,0-.35,0-.52,0-.78,0-.79.83-.79,5.45,0,10.9,0,16.35,0a7.45,7.45,0,0,1,7.62,7.59c.06,2.74,0,5.49,0,8.23a7.52,7.52,0,0,1-5.41,7.44C324.6,118.75,324.48,118.81,324.28,118.88Zm-7.51-17.22h-3.65c-.87,0-.88,0-.88.84q0,5.1,0,10.21c0,.8,0,.82.8.82h7.39a4.05,4.05,0,0,0,1.23-.2,1.7,1.7,0,0,0,1.42-1.8c0-2.64,0-5.28,0-7.91a1.74,1.74,0,0,0-1.36-1.75,4.35,4.35,0,0,0-1.43-.21Z"/><path d="M360.6,114.69q0,5.26,0,10.52a10.88,10.88,0,0,1-.2,2.48,7.34,7.34,0,0,1-7.24,6c-3.29.09-6.6.11-9.89,0-4.34-.14-7.17-3.14-7.46-7.68,0-.31,0-.62,0-.94q0-10.52,0-21a11.19,11.19,0,0,1,.34-2.88,7.26,7.26,0,0,1,7.06-5.71q5-.13,10.1,0a7.36,7.36,0,0,1,7.28,7.26c.11,2.74,0,5.48,0,8.22C360.6,112.19,360.6,113.44,360.6,114.69Zm-17.74-.17c0,3.5,0,7,0,10.51a2.08,2.08,0,0,0,2.13,2.41,48.1,48.1,0,0,0,6.45,0c1.57-.1,2.2-.89,2.2-2.46q0-10.41,0-20.82c0-1.61-.69-2.41-2.3-2.47-2.08-.08-4.16-.08-6.24,0a2.09,2.09,0,0,0-2.24,2.41C342.89,107.58,342.85,111.05,342.85,114.52Z"/><path d="M430.09,133.63a25,25,0,0,1,.71-3.46q3.24-14.35,6.52-28.7.59-2.59,1.17-5.17c.19-.86.19-.86,1.09-.86h9c.94,0,.94,0,1.15.92l4.6,20.28,3.63,16,.12.51c.09.4-.06.58-.48.57-.9,0-1.81,0-2.71,0s-1.88,0-2.81,0c-.55,0-.78-.17-.91-.73-.48-2.2-1-4.39-1.54-6.58-.19-.82-.2-.82-1-.83-3,0-6,0-9.06,0-.61,0-.84.2-1,.78-.48,2.2-1,4.38-1.52,6.58-.13.59-.36.8-1,.79-1.84,0-3.68,0-5.52,0A2.78,2.78,0,0,1,430.09,133.63Zm14.05-30.43a2.87,2.87,0,0,0-.19.32q-1.88,7.94-3.75,15.89c-.15.65-.09.73.58.74q3.23,0,6.46,0c.87,0,.88,0,.68-.88q-1.67-7.14-3.34-14.28C444.45,104.46,444.32,103.94,444.14,103.2Z"/><path d="M171.74,114.55q0-8.8,0-17.6c0-.24,0-.49,0-.73,0-.77,0-.79.84-.79h20.2c.85,0,.85,0,.89.86.07,1.39.14,2.77.19,4.16,0,1,.14,1-1,1H180.08c-1.62,0-1.42-.22-1.42,1.44,0,2.67,0,5.35,0,8,0,.89,0,.9.93.9h10.21c.24,0,.49,0,.73,0,.4,0,.56.18.56.56,0,1.42,0,2.85,0,4.27,0,.52-.27.63-.72.62-1.6,0-3.19,0-4.79,0h-6.14c-.75,0-.77,0-.78.74q0,4.43,0,8.85c0,.76,0,.77.85.77H193c.83,0,.85,0,.83.78-.05,1.56-.14,3.12-.2,4.68,0,.45-.19.63-.63.6-.21,0-.42,0-.62,0H173c-.21,0-.42,0-.62,0-.48,0-.72-.14-.68-.65,0-.24,0-.49,0-.73Q171.74,123.45,171.74,114.55Z"/><path d="M224,114.53q0-8.85,0-17.7c0-.28,0-.56,0-.83s.14-.58.55-.56c.21,0,.42,0,.62,0h19.58c.21,0,.42,0,.62,0,.41,0,.53.19.55.57.06,1.59.12,3.19.22,4.78,0,.55-.16.72-.7.72-1.6,0-3.19,0-4.79,0h-8.85c-.86,0-.88,0-.88.84q0,4.32,0,8.64c0,.87,0,.88,1,.88h10.52c.87,0,.88,0,.88.84q0,1.87,0,3.75c0,.84,0,.85-.88.85h-10.2c-1.42,0-1.27-.15-1.27,1.28q0,4.11,0,8.23c0,.84,0,.85.87.85H245c1.22,0,1.15-.08,1.1,1.12-.05,1.42-.14,2.84-.19,4.26,0,.47-.15.73-.66.67H224.89c-.85,0-.86,0-.86-1Q224,123.64,224,114.53Z"/><path d="M482.88,119.15c-.07,2.51-.05,5,0,7.53a7.25,7.25,0,0,1-7.26,7c-5.13.11-10.27,0-15.41,0-.56,0-.72-.21-.68-.74.1-1.56.16-3.12.27-4.67.05-.81.08-.81,1-.81h11.87a5.84,5.84,0,0,0,1.85-.2,1.84,1.84,0,0,0,1.48-2c0-1.63,0-3.26,0-4.89a2.54,2.54,0,0,0-1.15-2.21,5.37,5.37,0,0,0-2.6-1c-1.45-.17-2.91-.12-4.36-.16a8.58,8.58,0,0,1-4.08-1.11,7.76,7.76,0,0,1-4.28-7c0-2-.09-4.1,0-6.14A7.53,7.53,0,0,1,467,95.45c5,0,10.06,0,15.1,0,.74,0,.76,0,.75.75,0,1.6,0,3.19-.18,4.78,0,.54-.22.71-.75.71-1.63,0-3.26,0-4.89,0h-7.39a7.48,7.48,0,0,0-1,0,2,2,0,0,0-2,2.36c0,1.49,0,3,0,4.48a2.53,2.53,0,0,0,1.1,2.23,5,5,0,0,0,2.39.94c1.52.22,3,.11,4.57.18a8.69,8.69,0,0,1,6.95,3.61A6.4,6.4,0,0,1,482.88,119.15Z"/><path d="M257.37,114.61c0,3.47,0,6.94,0,10.41,0,1.6.59,2.17,2.09,2.43a7.33,7.33,0,0,0,1.25.06H270.9c.88,0,.91,0,1,.89.12,1.49.2,3,.28,4.46,0,.84,0,.86-.84.86H258.09a11,11,0,0,1-1.34-.14,7.39,7.39,0,0,1-6.41-7.12c0-.21,0-.42,0-.62q0-11.25,0-22.49a8.89,8.89,0,0,1,.32-2.36,7.28,7.28,0,0,1,7-5.52c4.62-.09,9.23,0,13.85,0,.68,0,.71,0,.67.72-.09,1.56-.22,3.11-.3,4.67-.05,1-.18.84-.92.84H260.43a5,5,0,0,0-1.44.14,1.83,1.83,0,0,0-1.61,2.08C257.36,107.46,257.37,111,257.37,114.61Z"/><path d="M406.16,114.62c0-3.58,0-7.15,0-10.73a10.31,10.31,0,0,1,.49-3.38,7.25,7.25,0,0,1,6.94-5.05c4.58-.08,9.16,0,13.74,0,.69,0,.72,0,.69.7-.07,1.52-.15,3-.26,4.57-.07,1-.1,1-1,1H416.2a4.77,4.77,0,0,0-1.54.19,1.75,1.75,0,0,0-1.43,1.9c0,1.77,0,3.54,0,5.31,0,5.31,0,10.62,0,15.93,0,1.46.44,2.25,2.27,2.48a15.6,15.6,0,0,0,1.87,0h9.37c.94,0,1,0,1,1,.11,1.45.18,2.91.26,4.36,0,.87,0,.88-.82.89h-6.87c-2.12,0-4.24,0-6.35,0a7.55,7.55,0,0,1-7.78-7.65c0-3.82,0-7.64,0-11.45Z"/><path d="M285.93,117.5q0-7.24,0-14.48c0-.21,0-.42,0-.62,0-.9,0-.91-.92-.91h-7.29c-.9,0-.91,0-.91-.92,0-1.49,0-3,0-4.48,0-.5.17-.66.67-.66q11.41,0,22.81,0c.48,0,.68.15.67.65,0,1.6,0,3.19,0,4.79,0,.55-.26.62-.7.62h-6.15c-.24,0-.49,0-.73,0-.4,0-.58.15-.56.55s0,.56,0,.83q0,14.79,0,29.58c0,1.42.14,1.28-1.28,1.28h-4.69c-.91,0-.92,0-.92-.91q0-5.83,0-11.67Q285.93,119.33,285.93,117.5Z"/><path d="M197.8,114.59q0-9,0-18c0-1.24-.07-1.14,1.1-1.14h5c.78,0,.78,0,.8.82,0,.24,0,.49,0,.73q0,14.58,0,29.16c0,.21,0,.42,0,.62,0,.9,0,.91.93.91h12.91c.24,0,.49,0,.73,0,.49,0,.69.14.66.65-.09,1.63-.16,3.26-.22,4.89,0,.41-.22.54-.59.52H198.72c-.9,0-.91,0-.91-.92Q197.8,123.7,197.8,114.59Z"/><path d="M395.11,114.59q0-9,0-17.91c0-1.42-.13-1.25,1.3-1.26,1.63,0,3.26,0,4.89,0,.54,0,.77.18.71.72a4.88,4.88,0,0,0,0,.52q0,17.91,0,35.82c0,1.42.12,1.25-1.3,1.26h-4.79c-.79,0-.81,0-.81-.81q0-4.79,0-9.58Q395.11,119,395.11,114.59Z"/><path d="M402.85,12.78A10.66,10.66,0,0,1,402.2,17a7.73,7.73,0,0,1-8.06,4.79,15.09,15.09,0,0,1-6.8-2.93,10.38,10.38,0,0,0-3.5-1.78,3.94,3.94,0,0,0-5.19,3c0,.17-.1.33-.14.5-.25,1.13-.25,1.14-1.44,1.09l-3.22-.17c-.34,0-.61,0-.64-.49a12.48,12.48,0,0,1,1.5-7.62,7.6,7.6,0,0,1,8-3.24,14.3,14.3,0,0,1,5,2.41c.6.42,1.16.88,1.75,1.31a7,7,0,0,0,2.62,1.21A4,4,0,0,0,397,12.53a5.87,5.87,0,0,0,.47-2.12c0-.41.2-.55.59-.54,1.32,0,2.63.1,3.95.11.47,0,.68.15.76.62A17.89,17.89,0,0,1,402.85,12.78Z"/><path d="M356.14,88.71a1.59,1.59,0,0,1-.84.53l-8.19,3.61c-.76.33-.77.33-1.2-.38S345,90.84,344.47,90c-.27-.43-.27-.71.17-1,2.53-1.9,5-3.82,7.55-5.73.25-.19.47-.44.74,0C354,85.11,355.08,86.92,356.14,88.71Z"/><path d="M67,66.4a8.13,8.13,0,0,1,.71-1L85.42,47.76a18.74,18.74,0,0,1,8.71-5.05,18.2,18.2,0,0,1,22.21,13.47,17.64,17.64,0,0,1-4.85,17.14c-5.95,6-12,12-18,18-.95,1-.92.73,0,1.65,1.27,1.28,2.56,2.55,3.83,3.83,1.09,1.11,1.11,2.05,0,3.15q-2.41,2.45-4.86,4.86c-1.11,1.09-2.05,1.1-3.14,0-1.41-1.39-2.8-2.8-4.2-4.2L54.62,70c-.22-.22-.45-.44-.66-.66a1.85,1.85,0,0,1,0-2.85q2.55-2.61,5.15-5.16a1.89,1.89,0,0,1,2.86,0c1.39,1.36,2.75,2.75,4.13,4.12C66.36,65.77,66.62,66,67,66.4Z"/><path d="M57.69,80.35c.24,0,.36.21.51.35L64,86.52c.56.56.56.58,0,1.13Q52.8,98.89,41.56,110.11a13.85,13.85,0,0,1-3.71,2.66,7.91,7.91,0,0,1-8.21-.47,15.9,15.9,0,0,1-4.55-4.67,39.27,39.27,0,0,1-5.53-13.17,65.2,65.2,0,0,1-1.77-16.41A62.16,62.16,0,0,1,45.05,28a59.79,59.79,0,0,1,22.34-9.27,62,62,0,0,1,47.84,10.11A4.12,4.12,0,0,1,117,33.56a5.27,5.27,0,0,1-2.82,3.68,3.94,3.94,0,0,1-4.32-.3,52.2,52.2,0,0,0-54.35-3.81A51.88,51.88,0,0,0,33.65,54.78,51.58,51.58,0,0,0,28.73,91,53.27,53.27,0,0,0,32,100.74a10.2,10.2,0,0,0,.88,1.65,1.35,1.35,0,0,0,2.07.4,6,6,0,0,0,1-.79C43,95.16,49.85,88.15,56.78,81.19A4.36,4.36,0,0,1,57.69,80.35Z"/><path d="M77.08,141.27a56.91,56.91,0,0,1-19.76-4.19,28.83,28.83,0,0,1-8.1-4.84,11.17,11.17,0,0,1-3.65-5.34,7.85,7.85,0,0,1,.67-5.76,15.15,15.15,0,0,1,3-4l22-22,.37-.37a.38.38,0,0,1,.62,0l.3.29,5.67,5.67c.59.59.59.6,0,1.21L63.48,116.53l-6.71,6.7a4.28,4.28,0,0,0-.54.63,1.46,1.46,0,0,0,.43,2.24,16,16,0,0,0,2.68,1.39,48.58,48.58,0,0,0,14.86,3.79c17.61,1.55,32.43-4.25,44.38-17.19A49.57,49.57,0,0,0,131,88.71a52.06,52.06,0,0,0-8-38.26,6,6,0,0,1-1-3,4.77,4.77,0,0,1,6.61-4.57,5,5,0,0,1,2.3,1.88,61.53,61.53,0,0,1,9.72,24.14,59.83,59.83,0,0,1,.9,11.6,60.64,60.64,0,0,1-14.16,38.3,61.36,61.36,0,0,1-29.73,19.8C91.74,140.41,85.72,141.31,77.08,141.27Z"/></g></g></svg>