<svg xmlns="http://www.w3.org/2000/svg" viewBox="0 0 472.74 160.24"><title>Ativo 2</title><g id="Camada_2" data-name="Camada 2"><g id="Layer_1" data-name="Layer 1"><path d="M102.51,81.31A23.93,23.93,0,0,0,78.79,57.23c-14.62-.06-25.06,10.15-25,24.51,0,12.91,10.74,23.31,24.18,23.44A24,24,0,0,0,102.51,81.31ZM65.87,83.94c-.83-5,.22-9.49,3.95-13C76.62,64.5,87.48,67.82,90,77a42.58,42.58,0,0,1,.75,4.21c-.15,6.49-4.33,12.09-10,13.24A12.54,12.54,0,0,1,65.87,83.94Z"/><path d="M178.61,104.22c3.25.08,6.5,0,9.8,0V58.2H177.12l.45,28.35a2.79,2.79,0,0,1-1-1c-5-8.13-10.13-16.2-14.95-24.45-1.38-2.36-2.86-3.29-5.51-3a60.8,60.8,0,0,1-6.49,0v46.09h11.05V76.41c.65,1,1.18,1.85,1.7,2.68q7.58,12.09,15.16,24.17C177.79,103.66,178.24,104.21,178.61,104.22Z"/><path d="M108.86,58.22v45.94h11.33V89.42c.52.69.86,1.13,1.18,1.58,2.9,4.06,5.82,8.11,8.68,12.21a2.26,2.26,0,0,0,2.14,1.09c3.56-.06,7.12,0,10.69,0,.42,0,.83,0,1.48-.07L132,88.69c1.17-.39,2.19-.64,3.13-1.07A13.55,13.55,0,0,0,137.81,86c7.05-5.44,7.41-17.55.75-23.85-3.17-3-7.11-3.89-11.27-4-5.82-.12-11.64-.08-17.46-.11A7.84,7.84,0,0,0,108.86,58.22Zm11.33,10.52a46.77,46.77,0,0,1,6.65.06A5.6,5.6,0,0,1,132,74.92a5.85,5.85,0,0,1-5.5,6.15,48.7,48.7,0,0,1-6.3,0Z"/><path d="M259.26,62c-3.18-2.82-7-3.7-11.1-3.78-5.78-.11-11.56-.08-17.33-.11-.34,0-.67.06-1.06.1v46h11.39V89.47c3.46,4.84,6.67,9.38,10,13.86a2.42,2.42,0,0,0,1.65.9c3.78.08,7.56,0,11.34,0a10.82,10.82,0,0,0,1.11-.13L253.06,88.87a39.5,39.5,0,0,0,5.15-2.47C265.8,81.28,266.31,68.25,259.26,62ZM248.17,80.89c-2.24.41-4.56.41-7,.6V68.39a59.53,59.53,0,0,1,7.15.57c3.07.6,4.6,2.83,4.56,5.93S251.2,80.33,248.17,80.89Z"/><path d="M54.39,13.64c3.29,9.6,6.6,19.2,9.85,28.81a1.4,1.4,0,0,0,1.65,1.15,37.59,37.59,0,0,1,4.3,0c.92.06,1.26-.3,1.54-1.14,2.36-7,4.76-14,7.16-21.07l3.18-9.29.26,0V43.52h7.81V1c-3.24,0-6.37,0-9.5,0A1.58,1.58,0,0,0,78.8,2.25C75.4,12.13,71.94,22,68.5,31.86c-.12.33-.26.65-.49,1.22-1.46-4.14-2.83-8-4.19-11.9-2.23-6.34-4.45-12.69-6.7-19-.16-.45-.62-1.12-1-1.13C52.73.95,49.3,1,45.84,1V43.47h7.81V12.28l.21,0C54,12.7,54.22,13.16,54.39,13.64Z"/><path d="M24.35,67.8c5.14-.88,10.06,1.84,12.55,6.87.21.42.71,1,1.08,1,3.86.07,7.73,0,11.67,0-1.37-10.59-13-19.19-24.83-18.47C11.81,58,2,68.3,2,81.12a24,24,0,0,0,22.76,24c14,.8,23.09-9.07,24.84-18.15-3.49,0-7,.07-10.42,0a2.6,2.6,0,0,0-2.72,1.56C34.1,92.62,30.53,95,25.68,94.72s-8.11-2.77-10.25-7A15.1,15.1,0,0,1,14,79.42,12.65,12.65,0,0,1,24.35,67.8Z"/><path d="M283.13,67.32a3.73,3.73,0,0,1,4.7,2,23.76,23.76,0,0,1,.76,2.3H299c.34,0,.67,0,1,0,.69-4.39-1.92-9.57-6.28-11.91-6.76-3.63-13.52-3.35-19.82,1-7.44,5.15-7.29,15.35.19,20.42a47.29,47.29,0,0,0,6.09,3.2c1.83.88,3.75,1.59,5.6,2.46a4.73,4.73,0,0,1,2.87,3,4.31,4.31,0,0,1-2.42,5.07,4,4,0,0,1-5.37-1.45A28.06,28.06,0,0,1,279.2,89H267.92c-.78,6.51,2.29,12.11,8.16,14.53a21.29,21.29,0,0,0,16.75,0c4.89-2,7.27-6,7.7-11.16.41-5-1.25-9-5.51-11.72-2.19-1.39-4.58-2.45-6.89-3.65-2-1.06-4.11-2-6.12-3.16a3.14,3.14,0,0,1-1.75-2.59A3.63,3.63,0,0,1,283.13,67.32Z"/><path d="M222.39,68.54V58.18H196.85v46H222.4V93.88H208.26V86H222V75.67H208.24V68.54Z"/><path d="M272.4,13.15l.29,0c.18.3.36.59.54.89q8.17,14.22,16.35,28.44c.24.42.64,1.05,1,1.06,2.8.09,5.61,0,8.42,0V1.1h-8V31.28a2.83,2.83,0,0,1-.83-1c-4.83-8.49-9.8-16.9-14.4-25.5C274.19,1.87,272.5.33,269.1.93a26.38,26.38,0,0,1-4.58,0V43.5h7.88Z"/><path d="M135.33,27.33c.54.74.85,1.15,1.14,1.57q4.74,6.86,9.49,13.71c.26.37.65.91,1,.92,3,.07,6,0,9.32,0L144.82,28a41.45,41.45,0,0,0,4.33-1.77c4.9-2.67,7.65-9.22,6.35-14.92A12.8,12.8,0,0,0,143.74,1.16C138.5.91,133.23,1,128,1a2.56,2.56,0,0,0-.53.11v42.4h7.87Zm0-18.94c2.9.09,5.8-.44,8.59.65a5.82,5.82,0,0,1,3.9,6.12c-.16,2.94-1.75,5.16-4.62,5.7a72.78,72.78,0,0,1-7.87.64Z"/><path d="M227.46,42.55c1.19-3,2.47-5.93,3.65-8.91a1.46,1.46,0,0,1,1.6-1.12c4.3,0,8.61,0,12.91,0a1.39,1.39,0,0,1,1.54,1q1.82,4.6,3.79,9.14a1.56,1.56,0,0,0,1,.87c2.6.07,5.21,0,7.92,0a3.25,3.25,0,0,0-.09-.56q-8.65-20.65-17.33-41.29A1.55,1.55,0,0,0,241.35,1C240,.92,238.57,1,237.18,1c-1-.06-1.36.35-1.7,1.18q-8.32,20.08-16.69,40.14c-.16.38-.26.78-.44,1.31,2.67,0,5.14,0,7.61,0A1.36,1.36,0,0,0,227.46,42.55Zm11.45-30.09h.31L243.88,25h-9.61Z"/><path d="M9.18,42.49c1.17-2.94,2.44-5.85,3.6-8.79a1.54,1.54,0,0,1,1.69-1.18c4.26.05,8.52,0,12.78,0a1.46,1.46,0,0,1,1.63,1.08c1.19,3,2.45,6,3.73,9,.16.37.57.9.88.91,2.67.07,5.35,0,8.2,0-.24-.62-.4-1.05-.58-1.48l-4-9.49Q30.75,17.3,24.36,2a1.37,1.37,0,0,0-1.53-1A28.43,28.43,0,0,1,19,1,1.66,1.66,0,0,0,17.13,2.2Q9.07,21.69.94,41.14c-.31.75-.58,1.51-.94,2.44,2.66,0,5.12-.05,7.59,0A1.44,1.44,0,0,0,9.18,42.49Zm11.43-30h.31q2.24,6.09,4.48,12.17a1.46,1.46,0,0,1,0,.43H16Z"/><path d="M195,44.29c10.07,1.08,19.26-5.44,21.86-12.67-2.68,0-5.25,0-7.81,0a2.59,2.59,0,0,0-2.13.9c-3.38,3.53-7.47,5.22-12.36,4.19a14.8,14.8,0,0,1-11.25-17.27c1-5.35,4.14-9.31,9.34-11.16a12.41,12.41,0,0,1,13.31,2.78,7.11,7.11,0,0,0,6,2.12c1.69-.14,3.41,0,5.18,0C213.81,4.26,202.93-1.45,193.2.43c-10.61,2-18.41,11.49-18.18,21.88A22.58,22.58,0,0,0,195,44.29Z"/><path d="M120.13,36.06H105.3v-10h14.23V18.68H105.34V8.31h14.81V1.05H97.4V43.48h22.72Z"/><path d="M221.48,146.62H236a10.13,10.13,0,0,1-3.49,4.18,12.18,12.18,0,0,1-19-12.39c1-4.82,3.92-8.15,8.72-9.42a11.09,11.09,0,0,1,12.14,3.92,1.48,1.48,0,0,0,.95.54c2.38,0,4.76,0,7.3,0-2.67-8.13-13.65-13.06-22.55-10.31-9.86,3-15.47,13-12.72,22.49a19,19,0,0,0,23.26,12.87c10.18-2.78,14.59-12.21,13.65-18H221.48Z"/><path d="M105.67,122.35A18.64,18.64,0,0,0,87.9,140.91a18.51,18.51,0,1,0,17.77-18.56Zm.66,30.61c-6.64,0-11.82-5.5-11.79-12.47a12.07,12.07,0,0,1,11.94-12c6.65.08,11.83,5.57,11.8,12.51A12,12,0,0,1,106.34,153Z"/><path d="M145.37,145a11.19,11.19,0,0,0,7.73-11.42c-.26-5.21-3.79-9.6-9-10.14-4.77-.5-9.62-.25-14.43-.33,0,0-.08,0-.13.07v35.13h6.56V145l1,1.38q3.86,5.57,7.72,11.14c.24.34.58.85.89.85,2.49.07,5,0,7.74,0l-9.52-13Zm-9.24-5V129.09a50.49,50.49,0,0,1,6.45.56,5.13,5.13,0,0,1-.22,10A49,49,0,0,1,136.13,140Z"/><path d="M267.22,126.67c-1.53-3.66-1.53-3.63-5.51-3.64a1.48,1.48,0,0,0-1.61,1.1q-6.86,16.6-13.78,33.17c-.14.33-.23.68-.38,1.14,2.25,0,4.34,0,6.42,0a1.53,1.53,0,0,0,1.08-.8q1.58-3.57,3-7.2a1.45,1.45,0,0,1,1.59-1.12q5.15.09,10.3,0a1.44,1.44,0,0,1,1.59,1.11q1.39,3.58,2.94,7.09c.17.39.66.89,1,.91,2.12.09,4.25,0,6.58,0-.22-.6-.35-1-.52-1.4ZM259.15,143l4-10.72,4,10.72Z"/><path d="M196.28,124.61c0,6.91,0,13.82,0,20.73a15.39,15.39,0,0,1-.3,3.1,5.18,5.18,0,0,1-4.09,4.39c-4.15.94-7.16-1.2-7.62-5.43a18.21,18.21,0,0,1-.1-1.95q0-10.37,0-20.73v-1.6h-6.59c0,8.16-.07,16.2,0,24.23a10.88,10.88,0,0,0,3,7.83,13.52,13.52,0,0,0,14.8,3c4.92-2,7.38-5.94,7.4-11.88,0-7.26,0-14.52,0-21.77v-1.35h-6.56Z"/><path d="M76.54,123.29a28.08,28.08,0,0,0-4-.2c-3.12,0-6.23,0-9.39,0v35.27h6.5V145c1.8,0,3.4,0,5,0,6.21-.22,10.14-3.47,11-9C86.56,129.39,82.93,124.28,76.54,123.29Zm0,14.8c-2.18.91-4.47.79-6.81.69v-9.51a16.58,16.58,0,0,1,6.71.65,4.06,4.06,0,0,1,2.69,4A4.12,4.12,0,0,1,76.52,138.09Z"/><path d="M169.05,1.07h-7.86V43.49h7.86Z"/><path d="M155.21,129.27h6.43v29.09h6.74V129.2h6.44v-6.06H155.21Z"/><path d="M290.8,123.18h-6.48v35.19h17.26v-6.08H290.8Z"/><path d="M312.52,160.24H472.74c-.15-3.54-.44-7-.38-10.39a4.37,4.37,0,0,0-2.72-4.41l-11.27,8.4.49-1.4c1.28-3.59,2.53-7.19,3.87-10.76a1.28,1.28,0,0,0-.57-1.79c-2.42-1.7-4.78-3.46-7.16-5.21-.63-.46-1.24-1-2.13-1.64,4.24,0,8.11,0,12,0a1.25,1.25,0,0,0,1.45-1.06c.63-2.12,1.41-4.19,2-6.3a4.07,4.07,0,0,0,.08-2A158.37,158.37,0,0,0,439.7,63c-1.6-2.1-3.29-4.13-5-6.27l-8.19,5.91c.15-.62.21-.91.29-1.19.91-3,1.78-6,2.76-8.94a1.85,1.85,0,0,0-.49-2.06c-2.48-2.92-5.67-5-8.69-7.22a1.25,1.25,0,0,1-.21-.29l.84-.2.22-.38L403.3,28l-6.92,4.59c.55-1.48.94-2.57,1.35-3.65s.87-2.25,1.33-3.45A159.41,159.41,0,0,0,346,3.62c1.12,2.92,2.12,5.64,3.22,8.32a1.67,1.67,0,0,0,1.28.69c2.91.06,5.82,0,8.74,0h2.49c-.54.44-.76.63-1,.8-2.84,2.08-5.67,4.16-8.53,6.21a1.17,1.17,0,0,0-.55,1.61c.49,1.29.83,2.64,1.24,4l2.27,7.38-10.44-7.56-10.06,7.3-.2-.17L339,20.3,329,13l.1-.29h1.26c3.22,0,6.43,0,9.65,0,.37,0,1-.27,1.08-.55,1-2.9,1.85-5.83,2.88-9.15L322.43.17,323,2.25C320-1,316.07.5,312.4,0V1.76q0,12.78,0,25.56a13.07,13.07,0,0,0,.89,5.82,65.68,65.68,0,0,1,2.88,8.48,1.39,1.39,0,0,0,1.61,1.2c3.52-.06,7,0,11,0-.52.42-.73.61-1,.78-2.8,2.05-5.59,4.12-8.43,6.13a1.19,1.19,0,0,0-.51,1.7c1.33,3.29,2.58,6.62,3.85,9.93.12.32.2.66.39,1.28l-10.58-7.68c0,.78-.1,1.27-.1,1.77q0,15.45,0,30.91a12.8,12.8,0,0,0,.87,5.66,74.89,74.89,0,0,1,3,8.72,1.13,1.13,0,0,0,1.29.94c3.22,0,6.43,0,9.65,0,.41,0,.83,0,1.64.08-2.43,1.76-4.56,3.29-6.67,4.84-1.19.87-3,1.59-3.33,2.72s.78,2.8,1.31,4.2c1,2.58,2,5.15,3.06,8l-10.67-7.7Zm62.3-44.95-10.07,8.23-.24-.1,3.64-12.88L357.87,103c.69-.06,1-.11,1.38-.11,3.56,0,7.12,0,10.69,0a1.27,1.27,0,0,0,1.45-1.07c1-3.05,2-6.08,3-9.11.09-.28.22-.55.43-1.08,1.12,3.33,2.26,6.4,3.16,9.53a2,2,0,0,0,2.43,1.74c3.63-.1,7.27,0,10.91,0l.12.31-8.29,6c-1.78,1.29-1.78,1.29-1.13,3.38l3.18,10.2Zm39.41,27.59c1.27,3.53,2.53,7.07,3.62,10.74l-10.12-8.27-11.27,8.43c.19-.64.27-1,.39-1.33,1.28-3.59,2.52-7.19,3.86-10.76a1.28,1.28,0,0,0-.56-1.8c-3-2.16-6-4.38-9.27-6.75.62-.05,1-.11,1.33-.11,3.09,0,6.17,0,9.26,0a1.76,1.76,0,0,0,2-1.29c1.29-3.3,2.74-6.54,4.25-10.1.69,2,1.3,3.81,1.9,5.58.54,1.6,1.1,3.2,1.58,4.82a1.17,1.17,0,0,0,1.36,1c3.17,0,6.35,0,9.52,0,.41,0,.82,0,1.57.07l-8.29,6.08C413.41,140.62,413.41,140.62,414.23,142.89Zm17.59-40a1.4,1.4,0,0,0,1.64-1.16c.94-3.06,2-6.08,3-9.11.08-.24.18-.47.4-1,1.16,3.48,2.28,6.66,3.26,9.89a1.7,1.7,0,0,0,2,1.41c3.34-.08,6.69,0,10,0h1.59c-.53.45-.76.67-1,.86-2.8,2-5.59,4.11-8.43,6.11a1.26,1.26,0,0,0-.55,1.71c1.16,3.61,2.24,7.25,3.46,11.22l-10.39-7.52-10.08,8.2-.23-.15q1-3.54,2-7.08c.44-1.54.84-3.09,1.34-4.61a1.38,1.38,0,0,0-.62-1.83c-2.73-1.92-5.42-3.92-8.11-5.89-.33-.24-.64-.51-1.28-1h3.34C426.08,102.92,429,102.88,431.82,102.94ZM401.71,72.86a1.53,1.53,0,0,0,1.72-1.12c1.33-3.33,2.77-6.62,4.29-10.22.52,1.54,1,2.81,1.39,4.09.69,2,1.43,4.08,2,6.16.26.89.67,1.11,1.55,1.09,3.17-.05,6.34,0,9.52,0h1.24l.07.25L417,77.82c-.95.69-1.87,1.42-2.85,2.06-.63.41-.7.8-.42,1.5,1.39,3.5,2.72,7,4.06,10.54.06.15.1.31.26.8l-6.18-4.47c-1.09-.79-2.21-1.54-3.25-2.4a1.34,1.34,0,0,0-1.91-.05c-2.92,2-5.9,4-8.85,6a2.66,2.66,0,0,1-1.37.53l4.53-11.85L390.8,73c.53-.06.83-.12,1.14-.12C395.19,72.84,398.45,72.81,401.71,72.86ZM359.24,42.8c3.43,0,6.87-.07,10.3,0a1.69,1.69,0,0,0,2-1.46c1-3.22,2.11-6.41,3.3-10,.81,2.39,1.51,4.44,2.21,6.5.41,1.23.88,2.45,1.2,3.7a1.38,1.38,0,0,0,1.63,1.2c3.43-.06,6.87,0,10.3,0h1.25l.09.25-7.61,5.56c-2.43,1.77-2.44,1.76-1.57,4.57.94,3,1.89,6.09,2.95,9.51l-10.42-7.57-10.09,7.33-.2-.2c1.09-3.55,2.14-7.12,3.29-10.65a1.49,1.49,0,0,0-.68-2c-3-2.12-6-4.34-9.18-6.69C358.54,42.86,358.89,42.8,359.24,42.8ZM328.76,73c.51-.06.81-.12,1.11-.12,3.3,0,6.6,0,9.9,0a1.34,1.34,0,0,0,1.55-1.1c1-3.13,2.06-6.24,3.11-9.35.06-.19.16-.37.34-.81l3.36,8.06c1.33,3.18,1.33,3.18,4.73,3.18h8.53l.08.25-7.62,5.56c-2.47,1.79-2.47,1.79-1.58,4.7s1.85,6,2.89,9.38c-.7-.49-1.14-.78-1.57-1.1-2.64-1.91-5.29-3.79-7.89-5.76a1.32,1.32,0,0,0-1.91,0c-3,2.24-6,4.4-9,6.59l-.27-.16L339,80.46Zm2.13,60.09c3,0,6,0,9,0a1.21,1.21,0,0,0,1.38-1c.94-3,1.94-5.92,2.93-8.88.13-.4.29-.79.56-1.5,1.51,3.61,2.92,6.91,4.26,10.24a1.54,1.54,0,0,0,1.71,1.13c3.5-.06,7,0,10.6.24l-5.37,4a35.38,35.38,0,0,1-3.17,2.27c-1.25.72-1.37,1.53-1,2.86,1.17,3.66,2.16,7.38,3.33,11.47l-10.44-8.51-10.34,8.44c.23-.77.34-1.2.48-1.61,1.25-3.5,2.49-7,3.8-10.5a1.28,1.28,0,0,0-.57-1.79c-2.7-1.89-5.34-3.87-8-5.82-.34-.25-.66-.52-1.32-1Z"/></g></g></svg>