{
  "accessors": [
    {
      "bufferView": 2,
      "componentType": 5126,
      "count": 1295,
      "max": [
        0.24921099841594696,
        1.758694052696228,
        0.81358402967453003
      ],
      "min": [
        -0.24921099841594696,
        -1.4561059474945068,
        -0.48363798856735229
      ],
      "type": "VEC3"
    },
    {
      "bufferView": 2,
      "byteOffset": 15540,
      "componentType": 5126,
      "count": 1295,
      "max": [
        0.99999678134918213,
        0.99938738346099854,
        0.99993729591369629
      ],
      "min": [
        -0.99999678134918213,
        -0.99965411424636841,
        -0.99981945753097534
      ],
      "type": "VEC3"
    },
    {
      "bufferView": 3,
      "componentType": 5126,
      "count": 1295,
      "max": [
        0.99961215257644653,
        0.99760288000106812,
        0.99938738346099854,
        1
      ],
      "min": [
        -0.99961215257644653,
        -0.99993729591369629,
        -0.99965405464172363,
        -1
      ],
      "type": "VEC4"
    },
    {
      "bufferView": 1,
      "componentType": 5126,
      "count": 1295,
      "max": [
        0.96947097778320312,
        0.98158401250839233
      ],
      "min": [
        0.30666899681091309,
        0.36055099964141846
      ],
      "type": "VEC2"
    },
    {
      "bufferView": 0,
      "componentType": 5125,
      "count": 6396,
      "max": [
        1294
      ],
      "min": [
        0
      ],
      "type": "SCALAR"
    },
    {
      "bufferView": 2,
      "byteOffset": 31080,
      "componentType": 5126,
      "count": 5226,
      "max": [
        0.30603599548339844,
        1.7497520446777344,
        0.70469897985458374
      ],
      "min": [
        -0.30603599548339844,
        -1.4447760581970215,
        -0.47435799241065979
      ],
      "type": "VEC3"
    },
    {
      "bufferView": 2,
      "byteOffset": 93792,
      "componentType": 5126,
      "count": 5226,
      "max": [
        0.99999940395355225,
        0.99992597103118896,
        1
      ],
      "min": [
        -0.99999940395355225,
        -0.99997663497924805,
        -1
      ],
      "type": "VEC3"
    },
    {
      "bufferView": 3,
      "byteOffset": 20720,
      "componentType": 5126,
      "count": 5226,
      "max": [
        0.99999850988388062,
        0.99993860721588135,
        0.99354004859924316,
        1
      ],
      "min": [
        -0.99999850988388062,
        -0.99999558925628662,
        -0.99995636940002441,
        -1
      ],
      "type": "VEC4"
    },
    {
      "bufferView": 1,
      "byteOffset": 10360,
      "componentType": 5126,
      "count": 5226,
      "max": [
        0.98287701606750488,
        0.99951702356338501
      ],
      "min": [
        0.00048300001071766019,
        0.00048300001071766019
      ],
      "type": "VEC2"
    },
    {
      "bufferView": 0,
      "byteOffset": 25584,
      "componentType": 5125,
      "count": 24048,
      "max": [
        5225
      ],
      "min": [
        0
      ],
      "type": "SCALAR"
    }
  ],
  "asset": {
    "extras": {
      "author": "Teliri (https://sketchfab.com/Teliri)",
      "license": "CC-BY-4.0 (http://creativecommons.org/licenses/by/4.0/)",
      "source": "https://sketchfab.com/models/bee02e85f22d4eaaa3c0144f11204843",
      "title": "Drakefire Pistol"
    },
    "generator": "Sketchfab-3.19.1",
    "version": "2.0"
  },
  "bufferViews": [
    {
      "buffer": 0,
      "byteLength": 121776,
      "byteOffset": 0,
      "name": "floatBufferViews",
      "target": 34963
    },
    {
      "buffer": 0,
      "byteLength": 52168,
      "byteOffset": 121776,
      "byteStride": 8,
      "name": "floatBufferViews",
      "target": 34962
    },
    {
      "buffer": 0,
      "byteLength": 156504,
      "byteOffset": 173944,
      "byteStride": 12,
      "name": "floatBufferViews",
      "target": 34962
    },
    {
      "buffer": 0,
      "byteLength": 104336,
      "byteOffset": 330448,
      "byteStride": 16,
      "name": "floatBufferViews",
      "target": 34962
    }
  ],
  "buffers": [
    {
      "byteLength": 434784,
      "uri": "scene.bin"
    }
  ],
  "images": [
    {
      "uri": "textures/base_metallicRoughness.jpg"
    },
    {
      "uri": "textures/base_normal.jpg"
    },
    {
      "uri": "textures/base_baseColor.jpg"
    }
  ],
  "materials": [
    {
      "doubleSided": true,
      "emissiveFactor": [
        0,
        0,
        0
      ],
      "name": "base",
      "normalTexture": {
        "index": 1,
        "scale": 1,
        "texCoord": 0
      },
      "occlusionTexture": {
        "index": 0,
        "strength": 0.59926629220000005,
        "texCoord": 0
      },
      "pbrMetallicRoughness": {
        "baseColorFactor": [
          1,
          1,
          1,
          1
        ],
        "baseColorTexture": {
          "index": 2,
          "texCoord": 0
        },
        "metallicFactor": 1,
        "metallicRoughnessTexture": {
          "index": 0,
          "texCoord": 0
        },
        "roughnessFactor": 1
      }
    }
  ],
  "meshes": [
    {
      "primitives": [
        {
          "attributes": {
            "NORMAL": 1,
            "POSITION": 0,
            "TANGENT": 2,
            "TEXCOORD_0": 3
          },
          "indices": 4,
          "material": 0,
          "mode": 4
        }
      ]
    },
    {
      "primitives": [
        {
          "attributes": {
            "NORMAL": 6,
            "POSITION": 5,
            "TANGENT": 7,
            "TEXCOORD_0": 8
          },
          "indices": 9,
          "material": 0,
          "mode": 4
        }
      ]
    }
  ],
  "nodes": [
    {
      "children": [
        1
      ],
      "name": "RootNode (gltf orientation matrix)",
      "rotation": [
        -0.70710678118654746,
        -0,
        -0,
        0.70710678118654757
      ]
    },
    {
      "children": [
        2
      ],
      "name": "RootNode (model correction matrix)"
    },
    {
      "children": [
        3,
        4
      ],
      "name": "drakefire_pistol_low.obj.cleaner.materialmerger.gles"
    },
    {
      "mesh": 0,
      "name": ""
    },
    {
      "mesh": 1,
      "name": ""
    }
  ],
  "samplers": [
    {
      "magFilter": 9729,
      "minFilter": 9987,
      "wrapS": 10497,
      "wrapT": 10497
    }
  ],
  "scene": 0,
  "scenes": [
    {
      "name": "OSG_Scene",
      "nodes": [
        0
      ]
    }
  ],
  "textures": [
    {
      "sampler": 0,
      "source": 0
    },
    {
      "sampler": 0,
      "source": 1
    },
    {
      "sampler": 0,
      "source": 2
    }
  ]
}

